<svg width="20" height="20" viewBox="0 0 20 20" fill="none" xmlns="http://www.w3.org/2000/svg">
<path d="M6.44256 16.3355L12.2061 10.4794C12.3325 10.3517 12.4034 10.1792 12.4034 9.99944C12.4034 9.81971 12.3325 9.64723 12.2061 9.51946L6.44381 3.66216C6.31747 3.53359 6.24667 3.36055 6.24667 3.1803C6.24667 3.00005 6.31747 2.82701 6.44381 2.69844C6.50553 2.63513 6.57929 2.58482 6.66076 2.55046C6.74223 2.51611 6.82975 2.49841 6.91816 2.49841C7.00658 2.49841 7.0941 2.51611 7.17557 2.55046C7.25704 2.58482 7.3308 2.63513 7.39252 2.69844L13.1548 8.55324C13.5335 8.93888 13.7456 9.45774 13.7456 9.99819C13.7456 10.5386 13.5335 11.0575 13.1548 11.4431L7.39252 17.2979C7.33079 17.3614 7.25694 17.4119 7.17536 17.4464C7.09377 17.4809 7.00611 17.4986 6.91754 17.4986C6.82897 17.4986 6.74131 17.4809 6.65972 17.4464C6.57814 17.4119 6.50429 17.3614 6.44256 17.2979C6.31622 17.1694 6.24542 16.9963 6.24542 16.8161C6.24542 16.6358 6.31622 16.4628 6.44256 16.3342" fill="#98B8CB"/>
</svg>
