<svg width="44" height="44" viewBox="0 0 44 44" fill="none" xmlns="http://www.w3.org/2000/svg">
<path d="M16.5 8.17668C18.2784 7.61166 20.134 7.32714 22 7.33335C29.667 7.33335 34.8846 11.9167 37.9958 15.9574C39.5541 17.985 40.3333 18.9952 40.3333 22C40.3333 25.0067 39.5541 26.0169 37.9958 28.0427C34.8846 32.0834 29.667 36.6667 22 36.6667C14.333 36.6667 9.11529 32.0834 6.00413 28.0427C4.44579 26.0187 3.66663 25.0049 3.66663 22C3.66663 18.9934 4.44579 17.9832 6.00413 15.9574C6.95471 14.7159 8.01298 13.5607 9.16663 12.5052" stroke="#1E465D" stroke-opacity="0.64" stroke-width="2" stroke-linecap="round"/>
<path d="M27.5 22C27.5 23.4587 26.9205 24.8576 25.8891 25.8891C24.8576 26.9205 23.4587 27.5 22 27.5C20.5413 27.5 19.1424 26.9205 18.1109 25.8891C17.0795 24.8576 16.5 23.4587 16.5 22C16.5 20.5413 17.0795 19.1424 18.1109 18.1109C19.1424 17.0795 20.5413 16.5 22 16.5C23.4587 16.5 24.8576 17.0795 25.8891 18.1109C26.9205 19.1424 27.5 20.5413 27.5 22Z" stroke="#1E465D" stroke-opacity="0.64" stroke-width="2"/>
</svg>
