<svg width="20" height="20" viewBox="0 0 20 20" fill="none" xmlns="http://www.w3.org/2000/svg">
<path d="M13.5532 16.3358L7.78963 10.4798C7.66323 10.352 7.59233 10.1795 7.59233 9.99978C7.59233 9.82005 7.66323 9.64757 7.78963 9.5198L13.5519 3.66374C13.6783 3.53518 13.7491 3.36214 13.7491 3.18189C13.7491 3.00163 13.6783 2.82859 13.5519 2.70003C13.4902 2.63672 13.4165 2.58641 13.335 2.55205C13.2535 2.5177 13.166 2.5 13.0776 2.5C12.9892 2.5 12.9016 2.5177 12.8202 2.55205C12.7387 2.58641 12.6649 2.63672 12.6032 2.70003L6.84092 8.55483C6.46227 8.94047 6.25013 9.45933 6.25013 9.99978C6.25013 10.5402 6.46227 11.0591 6.84092 11.4447L12.6032 17.2995C12.665 17.363 12.7388 17.4135 12.8204 17.448C12.902 17.4824 12.9896 17.5002 13.0782 17.5002C13.1668 17.5002 13.2544 17.4824 13.336 17.448C13.4176 17.4135 13.4915 17.363 13.5532 17.2995C13.6795 17.171 13.7503 16.9979 13.7503 16.8177C13.7503 16.6374 13.6795 16.4644 13.5532 16.3358Z" fill="#98B8CB"/>
</svg>
